<svg width="22" height="22" fill="none" xmlns="http://www.w3.org/2000/svg"><path d="M.545 4.475A.549.549 0 010 3.936V.545C0 .243.243 0 .545 0h3.391c.297 0 .54.243.54.545v1.18h13.048V.545a.55.55 0 01.54-.545h3.391A.55.55 0 0122 .545v3.391c0 .297-.243.54-.545.54h-1.18v13.048h1.18a.55.55 0 01.545.54v3.391a.55.55 0 01-.545.545h-3.391a.542.542 0 01-.54-.545v-1.18H4.476v1.18c0 .297-.242.54-.539.545H.545A.55.55 0 010 21.455v-3.391c0-.297.243-.54.545-.54h1.18V4.476H.545zm20.377-1.078V1.078h-2.32v2.32h2.32zm-2.32 17.525h2.32v-2.32h-2.32v2.32zM4.476 18.064v1.132h13.05v-1.132a.54.54 0 01.539-.54h1.132V4.476h-1.132a.54.54 0 01-.54-.539V2.804H4.476v1.132a.54.54 0 01-.539.54H2.804v13.048h1.132a.54.54 0 01.54.54zm-3.397.539v2.319h2.32v-2.32h-2.32zm2.32-15.206V1.078h-2.32v2.32h2.32z" fill="#fff"/></svg>