<svg width="14" height="14" fill="none" xmlns="http://www.w3.org/2000/svg"><g clip-path="url(#clip0_1_213)"><path d="M13.5 0a.5.5 0 00-.223.053L9.488 1.948 5.204.043C5.197.04 5.189.04 5.18.037a.5.5 0 00-.12-.03.744.744 0 00-.121 0 .519.519 0 00-.12.03c-.007.003-.015.003-.022.006l-4.5 2A.5.5 0 000 2.5v11a.5.5 0 00.703.457L5 12.047l4.297 1.91c.007.003.015 0 .023.004.12.055.26.052.378-.008.008-.003.017 0 .025-.005l4-2A.5.5 0 0014 11.5V.5a.5.5 0 00-.5-.5zm-9 11.175L1 12.73V2.825L4.5 1.27v9.905zM9 12.73l-3.5-1.555V1.27L9 2.825v9.905zm4-1.539l-3 1.5V2.809l3-1.5v9.882z" fill="#84829A"/></g><defs><clipPath id="clip0_1_213"><path fill="#fff" d="M0 0h14v14H0z"/></clipPath></defs></svg>