<svg width="24" height="18" fill="none" xmlns="http://www.w3.org/2000/svg"><path d="M20.818 17.929c-.45.009-.892-.12-1.267-.37a1.715 1.715 0 00-1.876 0 2.359 2.359 0 01-2.534 0 1.714 1.714 0 00-1.877 0 2.359 2.359 0 01-2.534 0 1.713 1.713 0 00-1.876 0 2.193 2.193 0 01-1.156.366l-.022-.648c.304-.008.6-.104.85-.277a2.358 2.358 0 012.533 0 1.715 1.715 0 001.877 0 2.359 2.359 0 012.534 0 1.714 1.714 0 001.877 0 2.36 2.36 0 012.534 0 1.719 1.719 0 001.88 0 2.208 2.208 0 011.266-.369v.649a1.573 1.573 0 00-.939.28 2.218 2.218 0 01-1.27.369zm-17.64-.001a2.19 2.19 0 01-1.266-.369 1.572 1.572 0 00-.939-.28v-.648c.45-.01.892.12 1.267.37.275.19.604.288.938.279.335.009.664-.09.939-.28.374-.25.815-.378 1.265-.369.438-.01.87.113 1.237.353l-.327.56a1.55 1.55 0 00-.91-.264 1.565 1.565 0 00-.935.279 2.2 2.2 0 01-1.269.37zm17.642-2.27c-.451.01-.893-.12-1.269-.37a1.717 1.717 0 00-1.878 0 2.359 2.359 0 01-2.533 0 1.714 1.714 0 00-1.876 0 2.358 2.358 0 01-2.534 0 1.714 1.714 0 00-1.876 0c-.375.25-.817.38-1.267.37-.45.01-.892-.12-1.267-.37a1.57 1.57 0 00-.937-.279 1.57 1.57 0 00-.938.28c-.374.25-.816.378-1.265.369-.45.01-.892-.12-1.267-.37a1.57 1.57 0 00-.94-.279v-.648c.45-.01.892.12 1.267.369.275.19.604.288.938.28a1.57 1.57 0 00.938-.28c.374-.25.815-.378 1.265-.37.45-.009.893.12 1.268.37.275.19.603.288.938.28.335.008.663-.09.938-.28a2.358 2.358 0 012.534 0 1.713 1.713 0 001.876 0 2.358 2.358 0 012.534 0 1.714 1.714 0 001.876 0 2.362 2.362 0 012.536 0 1.72 1.72 0 001.878 0 2.21 2.21 0 011.268-.37v.65a1.573 1.573 0 00-.94.279c-.375.25-.817.378-1.268.369zm-.002-2.27c-.45.01-.892-.12-1.267-.37a1.573 1.573 0 00-.938-.279 1.49 1.49 0 00-.71.153l-.286-.584c.31-.152.651-.227.996-.218a2.2 2.2 0 011.268.37 1.72 1.72 0 001.881 0 2.208 2.208 0 011.265-.37v.65a1.573 1.573 0 00-.939.279 2.21 2.21 0 01-1.27.369zm-4.414 0c-.45.01-.89-.12-1.264-.369a1.714 1.714 0 00-1.877 0 2.358 2.358 0 01-2.534 0 1.715 1.715 0 00-1.877 0c-.374.25-.816.378-1.266.369-.45.01-.892-.12-1.267-.37a1.573 1.573 0 00-.938-.279 1.565 1.565 0 00-.935.28c-.375.25-.817.378-1.268.369-.45.01-.892-.12-1.266-.37a1.573 1.573 0 00-.939-.279v-.648c.45-.01.892.119 1.267.369.275.19.604.288.938.28.335.008.664-.09.939-.28.374-.25.815-.379 1.265-.37.45-.009.892.12 1.267.37.275.19.603.288.938.28.335.008.663-.09.939-.28a2.359 2.359 0 012.534 0 1.715 1.715 0 001.876 0 2.358 2.358 0 012.535 0 1.646 1.646 0 001.043.275l.087.643c-.066.007-.131.01-.197.01zm4.416-2.271a2.21 2.21 0 01-1.269-.369 1.716 1.716 0 00-1.878 0 2.359 2.359 0 01-2.533 0 1.713 1.713 0 00-1.876 0 2.359 2.359 0 01-2.534 0 1.713 1.713 0 00-1.876 0c-.375.25-.817.379-1.267.37-.45.009-.892-.12-1.267-.37a1.57 1.57 0 00-.937-.28 1.57 1.57 0 00-.938.28c-.374.25-.816.378-1.265.37-.45.009-.892-.12-1.267-.37a1.57 1.57 0 00-.94-.28V9.82c.45-.01.892.12 1.267.37.275.19.604.288.938.279.335.009.663-.09.938-.28a2.2 2.2 0 011.265-.369 2.2 2.2 0 011.268.37c.275.19.603.288.938.279.335.009.663-.09.938-.28a2.358 2.358 0 012.534 0 1.714 1.714 0 001.876 0 2.358 2.358 0 012.534 0 1.715 1.715 0 001.876 0 2.362 2.362 0 012.536 0 1.72 1.72 0 001.878 0c.375-.25.818-.378 1.268-.369v.649a1.573 1.573 0 00-.94.28 2.21 2.21 0 01-1.268.368z" fill="#fff"/><path d="M16.198 10.842l-.612-.214a3.556 3.556 0 00-.19-2.784l-2.228-4.363a.325.325 0 01.205-.46l4.44-1.184a.567.567 0 00-.277-1.1L12.162 2.02a.769.769 0 00-.5 1.114l1.596 2.964a.324.324 0 01-.13.438L11.07 7.672l-.313-.568 1.778-.98-1.442-2.682a1.418 1.418 0 01.921-2.052l5.37-1.284a1.216 1.216 0 11.597 2.358l-4.053 1.08 2.046 4.004a4.207 4.207 0 01.225 3.294zM9.622 7.734L5.681 9.906l.313.567 3.941-2.171-.313-.568z" fill="#fff"/><path d="M19.135 8.685a2.432 2.432 0 110-4.865 2.432 2.432 0 010 4.865zm0-4.216a1.784 1.784 0 100 3.567 1.784 1.784 0 000-3.567z" fill="#fff"/></svg>