<svg width="24" height="20" fill="none" xmlns="http://www.w3.org/2000/svg"><path d="M4.5 11.125a1.5 1.5 0 100 3 1.5 1.5 0 000-3zm0 2.25a.75.75 0 110-1.5.75.75 0 010 1.5zm15-2.25a1.5 1.5 0 100 3 1.5 1.5 0 000-3zm0 2.25a.75.75 0 110-1.5.75.75 0 010 1.5zM8.625 13h6.75v.75h-6.75V13zm0-1.5h6.75v.75h-6.75v-.75zm2.25-5.625h2.25v.75h-2.25v-.75z" fill="#fff"/><path d="M23.25 9.25V8.5a1.128 1.128 0 00-1.125-1.125H20.64l-.776-2.723-.233-.926a1.125 1.125 0 00-1.091-.851h-3.165v-1.5a.752.752 0 00-.75-.75h-5.25a.752.752 0 00-.75.75v1.5H5.46a1.125 1.125 0 00-1.091.851l-.229.923-.78 2.726H1.875A1.128 1.128 0 00.75 8.5v.75a1.122 1.122 0 00.529.949A1.866 1.866 0 00.75 11.5V16a1.12 1.12 0 00.375.832v1.418a1.128 1.128 0 001.125 1.125h3a1.128 1.128 0 001.125-1.125v-1.125h11.25v1.125a1.128 1.128 0 001.125 1.125h3a1.128 1.128 0 001.125-1.125v-1.418A1.12 1.12 0 0023.25 16v-4.5c0-.486-.19-.953-.529-1.301a1.122 1.122 0 00.529-.949zM9.375 1.375h5.25v1.5h-5.25v-1.5zM5.096 3.91a.375.375 0 01.364-.285h13.08a.375.375 0 01.364.285l.116.465H4.98l.116-.465zm-.315 1.215H19.22l1.282 4.5H9.716a2.247 2.247 0 00-4.432 0H3.499l1.282-4.5zm4.167 4.5H6.051a1.494 1.494 0 012.896 0zM1.5 8.5a.375.375 0 01.375-.375h1.271l-.427 1.5h-.844A.375.375 0 011.5 9.25V8.5zm4.125 9.75a.375.375 0 01-.375.375h-3a.375.375 0 01-.375-.375v-1.125h3.75v1.125zm16.5 0a.375.375 0 01-.375.375h-3a.375.375 0 01-.375-.375v-1.125h3.75v1.125zM22.5 16a.375.375 0 01-.375.375H1.875A.375.375 0 011.5 16v-.375h21V16zm0-1.125h-21V11.5a1.128 1.128 0 011.125-1.125h18.75A1.128 1.128 0 0122.5 11.5v3.375zm0-5.625a.375.375 0 01-.375.375h-.844l-.427-1.5h1.271a.375.375 0 01.375.375v.75z" fill="#fff"/></svg>