<svg width="16" height="16" fill="none" xmlns="http://www.w3.org/2000/svg"><path d="M.267 15.467h1.6v-8.8c0-.148.12-.267.266-.267h3.734V.267c0-.148.12-.267.266-.267h6.934c.147 0 .266.12.266.267v15.2h2.4a.267.267 0 110 .533H.267a.267.267 0 010-.533zm10.133 0h1.067v-2.4a.267.267 0 00-.267-.267h-.533a.267.267 0 00-.267.267v2.4zm-1.067-8.8v8.8h.534v-2.4a.8.8 0 01.8-.8h.533a.8.8 0 01.8.8v2.4h.8V.533H6.4V6.4h2.667c.147 0 .266.12.266.267zm-6.933 8.8h6.4V6.933H2.4v8.534z" fill="#84829A"/><path d="M7.467 3.733h1.6c.147 0 .266.12.266.267v1.6c0 .147-.12.267-.266.267h-1.6A.267.267 0 017.2 5.6V4c0-.147.12-.267.267-.267zm.266 1.6H8.8V4.267H7.733v1.066zm-.266-4.266h1.6c.147 0 .266.12.266.266v1.6c0 .148-.12.267-.266.267h-1.6a.267.267 0 01-.267-.267v-1.6c0-.147.12-.266.267-.266zm.266 1.6H8.8V1.6H7.733v1.067zm2.4 1.066h1.6c.148 0 .267.12.267.267v1.6c0 .147-.12.267-.267.267h-1.6a.267.267 0 01-.266-.267V4c0-.147.12-.267.266-.267zm.267 1.6h1.067V4.267H10.4v1.066zm-.267-4.266h1.6c.148 0 .267.12.267.266v1.6c0 .148-.12.267-.267.267h-1.6a.267.267 0 01-.266-.267v-1.6c0-.147.12-.266.266-.266zm.267 1.6h1.067V1.6H10.4v1.067zM10.133 6.4h1.6c.148 0 .267.12.267.267v1.6c0 .147-.12.266-.267.266h-1.6a.267.267 0 01-.266-.266v-1.6c0-.148.12-.267.266-.267zM10.4 8h1.067V6.933H10.4V8zm-.267 1.067h1.6c.148 0 .267.119.267.266v1.6c0 .148-.12.267-.267.267h-1.6a.267.267 0 01-.266-.267v-1.6c0-.147.12-.266.266-.266zm.267 1.6h1.067V9.6H10.4v1.067zm-5.333 1.6h-1.6A.267.267 0 013.2 12v-1.6c0-.147.12-.267.267-.267h1.6c.147 0 .266.12.266.267V12c0 .147-.12.267-.266.267zm-.267-1.6H3.733v1.066H4.8v-1.066zM5.067 9.6h-1.6a.267.267 0 01-.267-.267v-1.6c0-.147.12-.266.267-.266h1.6c.147 0 .266.119.266.266v1.6c0 .147-.12.267-.266.267zM4.8 8H3.733v1.067H4.8V8zm.267 6.933h-1.6a.267.267 0 01-.267-.266v-1.6c0-.148.12-.267.267-.267h1.6c.147 0 .266.12.266.267v1.6c0 .147-.12.266-.266.266zm-.267-1.6H3.733V14.4H4.8v-1.067zm2.933-1.066h-1.6A.267.267 0 015.867 12v-1.6c0-.147.12-.267.266-.267h1.6c.148 0 .267.12.267.267V12c0 .147-.12.267-.267.267zm-.266-1.6H6.4v1.066h1.067v-1.066zM7.733 9.6h-1.6a.267.267 0 01-.266-.267v-1.6c0-.147.12-.266.266-.266h1.6c.148 0 .267.119.267.266v1.6c0 .147-.12.267-.267.267zM7.467 8H6.4v1.067h1.067V8zm.266 6.933h-1.6a.267.267 0 01-.266-.266v-1.6c0-.148.12-.267.266-.267h1.6c.148 0 .267.12.267.267v1.6c0 .147-.12.266-.267.266zm-.266-1.6H6.4V14.4h1.067v-1.067z" fill="#84829A"/></svg>