<svg width="107" height="35" fill="none" xmlns="http://www.w3.org/2000/svg"><rect width="107" height="35" rx="17.5" fill="#080809"/><g clip-path="url(#clip0_108_77)"><path d="M28.508 17.002l-10.044 9.671a1.709 1.709 0 01-.745-1.426V8.757a1.709 1.709 0 01.745-1.426L28.508 17z" fill="#2196F3"/><path d="M32.022 13.624l-3.515 3.378L18.464 7.33a1.33 1.33 0 01.118-.082 1.718 1.718 0 011.734-.027l11.706 6.402z" fill="#4CAF50"/><path d="M36.28 17.002a1.736 1.736 0 01-.907 1.543l-3.351 1.835-3.515-3.378 3.515-3.378 3.35 1.834c.566.307.915.9.909 1.544z" fill="#F0BB1F"/><path d="M32.022 20.38l-11.706 6.402a1.74 1.74 0 01-1.734-.027 1.331 1.331 0 01-.118-.082l10.043-9.671 3.515 3.378z" fill="#F15A2B"/></g><path d="M48.024 11.88h-2.808V13h1.496c-.2.536-.688.864-1.432.864-1.088 0-1.76-.696-1.76-1.648 0-.984.704-1.68 1.648-1.68.632 0 1.136.288 1.368.656l1.088-.624c-.472-.752-1.376-1.28-2.448-1.28a2.904 2.904 0 00-2.936 2.92c0 1.608 1.264 2.904 3.024 2.904 1.568 0 2.76-1.04 2.76-2.752v-.48zm1.602 1.888v-.992h2V11.56h-2v-.928h2.2V9.4h-3.48V15h3.52v-1.232h-2.24z" fill="#fff"/><path d="M55.948 9.4h-4.16v1.232h1.44V15h1.28v-4.368h1.44V9.4zm1.76 0V15h1.28V9.4h-1.28zm5.602 0h-4.16v1.232h1.44V15h1.28v-4.368h1.44V9.4zm4.433 5.712a2.887 2.887 0 002.912-2.912 2.887 2.887 0 00-2.912-2.912A2.887 2.887 0 0064.83 12.2a2.887 2.887 0 002.912 2.912zm0-1.248c-.912 0-1.632-.664-1.632-1.664 0-1 .72-1.664 1.632-1.664.912 0 1.632.664 1.632 1.664 0 1-.72 1.664-1.632 1.664zM74.095 9.4v3.04l-2.16-3.04h-.96V15h1.28v-3.04l2.16 3.04h.96V9.4h-1.28zM48.024 21.392v.216c0 .699-.248 1.288-.744 1.768-.496.475-1.15.712-1.96.712-.853 0-1.557-.277-2.112-.832-.555-.56-.832-1.245-.832-2.056 0-.81.275-1.493.824-2.048.55-.56 1.245-.84 2.088-.84.512 0 .981.123 1.408.368.432.245.765.573 1 .984l-.376.224a2.118 2.118 0 00-.832-.848 2.324 2.324 0 00-1.2-.32c-.725 0-1.323.24-1.792.72-.464.475-.696 1.061-.696 1.76 0 .699.235 1.288.704 1.768.47.475 1.075.712 1.816.712.656 0 1.187-.179 1.592-.536a1.97 1.97 0 00.68-1.352h-2.376v-.4h2.808zm5.679 1.856c-.56.56-1.243.84-2.048.84-.806 0-1.488-.28-2.048-.84a2.804 2.804 0 01-.84-2.048c0-.8.28-1.48.84-2.04a2.774 2.774 0 012.048-.848c.805 0 1.488.283 2.048.848.56.56.84 1.24.84 2.04s-.28 1.483-.84 2.048zm-3.8-.288c.48.48 1.064.72 1.752.72s1.269-.24 1.744-.72c.48-.485.72-1.072.72-1.76s-.24-1.272-.72-1.752a2.346 2.346 0 00-1.744-.728c-.688 0-1.272.243-1.752.728a2.398 2.398 0 00-.712 1.752c0 .688.237 1.275.712 1.76zm10.331.288c-.56.56-1.243.84-2.048.84-.806 0-1.488-.28-2.048-.84a2.804 2.804 0 01-.84-2.048c0-.8.28-1.48.84-2.04a2.774 2.774 0 012.048-.848c.805 0 1.488.283 2.048.848.56.56.84 1.24.84 2.04s-.28 1.483-.84 2.048zm-3.8-.288c.48.48 1.064.72 1.752.72s1.27-.24 1.744-.72c.48-.485.72-1.072.72-1.76s-.24-1.272-.72-1.752a2.346 2.346 0 00-1.744-.728c-.688 0-1.272.243-1.752.728a2.398 2.398 0 00-.712 1.752c0 .688.237 1.275.712 1.76zm11.043-1.568v.216c0 .699-.248 1.288-.744 1.768-.496.475-1.15.712-1.96.712-.853 0-1.557-.277-2.112-.832-.555-.56-.832-1.245-.832-2.056 0-.81.275-1.493.824-2.048.55-.56 1.245-.84 2.088-.84.512 0 .981.123 1.408.368.432.245.765.573 1 .984l-.376.224a2.118 2.118 0 00-.832-.848 2.324 2.324 0 00-1.2-.32c-.725 0-1.323.24-1.792.72-.464.475-.696 1.061-.696 1.76 0 .699.235 1.288.704 1.768.47.475 1.075.712 1.816.712.656 0 1.187-.179 1.592-.536a1.97 1.97 0 00.68-1.352H64.67v-.4h2.808zm1.487 2.208h2.64v.4H68.54v-5.6h.424v5.2zm3.946 0h2.8v.4h-3.225v-5.6h3.184v.4h-2.76v2.176h2.56v.4h-2.56V23.6zm7.877-5.2c.502 0 .918.165 1.248.496.331.33.496.744.496 1.24s-.165.91-.496 1.24c-.33.325-.746.488-1.248.488h-1.48V24h-.424v-5.6h1.904zm0 3.064c.384 0 .7-.125.944-.376.251-.25.377-.568.377-.952 0-.39-.126-.71-.377-.96-.245-.25-.56-.376-.944-.376h-1.48v2.664h1.48zm3.216 2.136h2.64v.4h-3.064v-5.6h.424v5.2zm7.445.4l-.544-1.424h-2.808L87.552 24h-.448l2.176-5.6h.448l2.168 5.6h-.448zm-3.192-1.824h2.496l-1.248-3.256-1.248 3.256zM95.88 18.4l-2.04 3.296V24h-.423v-2.304l-2.04-3.296h.48l1.776 2.888L95.4 18.4h.48z" fill="#fff"/><defs><clipPath id="clip0_108_77"><path fill="#fff" transform="translate(17 7)" d="M0 0h20v20H0z"/></clipPath></defs></svg>