<svg width="16" height="16" fill="none" xmlns="http://www.w3.org/2000/svg"><g clip-path="url(#clip0_1_511)" fill="#fff"><path d="M13.656 0H2.344A2.347 2.347 0 000 2.344v11.312A2.346 2.346 0 002.344 16h11.312A2.346 2.346 0 0016 13.656V2.344A2.346 2.346 0 0013.656 0zm1.406 13.656c0 .776-.63 1.406-1.406 1.406H2.344c-.776 0-1.406-.63-1.406-1.406V2.344c0-.776.63-1.406 1.406-1.406h11.312c.776 0 1.406.63 1.406 1.406v11.312z"/><path d="M13.156 1.906a.939.939 0 000 1.875.939.939 0 000-1.875zM8 3.781A4.223 4.223 0 003.781 8 4.224 4.224 0 008 12.219 4.224 4.224 0 0012.219 8 4.224 4.224 0 008 3.781zm0 7.5A3.285 3.285 0 014.719 8 3.285 3.285 0 018 4.719 3.285 3.285 0 0111.281 8 3.285 3.285 0 018 11.281z"/></g><defs><clipPath id="clip0_1_511"><path fill="#fff" d="M0 0h16v16H0z"/></clipPath></defs></svg>