<svg width="92" height="78" fill="none" xmlns="http://www.w3.org/2000/svg"><path d="M92 60c0 9.941-8.059 18-18 18H47a5 5 0 01-5-5V39c0-5.523 4.477-10 10-10h35a5 5 0 015 5v26z" fill="#FFF1DA"/><path d="M23.527 50.657l-1.888-.903-11.217 16.584H22.94l1.206-.786V51.225l-.619-.568z" fill="#407093"/><path d="M21.81 49.835l-4.246-2.032h-.8L4.761 65.552l.714.786h5.173L21.81 49.835z" fill="#365E7D"/><path d="M26.4 65.552H9.848c-.752 0-1.362.609-1.362 1.361v1.725c0 .752.61 1.362 1.361 1.362H26.4c.752 0 1.362-.61 1.362-1.362v-1.725c0-.752-.61-1.361-1.362-1.361z" fill="#4A80AA"/><path d="M8.768 68.638v-1.725c0-.752.61-1.361 1.361-1.361H1.362A1.36 1.36 0 000 66.913v1.725C0 69.39.61 70 1.362 70h8.767c-.752 0-1.361-.61-1.361-1.362z" fill="#407093"/><path d="M21.24 39.983a7.992 7.992 0 004.338 10.94 7.798 7.798 0 003.34-2.093v-1.74l-7.678-7.107z" fill="#4A80AA"/><path d="M20.577 43.486c0-1.218.281-2.369.78-3.395l-2.454-2.272h-.996a7.791 7.791 0 007.9 13.026 7.793 7.793 0 01-5.23-7.359z" fill="#407093"/><path d="M65.812.925a3.157 3.157 0 00-4.465 0l-3.013 3.013v.381l3.76 3.92.705.163 3.013-3.013a3.157 3.157 0 000-4.464z" fill="#FFD086"/><path d="M66.645 2.415a3.138 3.138 0 00-.833-1.49 3.157 3.157 0 00-4.465 0l-3.013 3.013v.381l1.994 2.079a276.508 276.508 0 012.976-3.065c1.012-1.011 2.49-1.019 3.34-.918z" fill="#FFC365"/><path d="M55.498 8.95a1.23 1.23 0 01-.105-.005L20.576 5.518a1.056 1.056 0 11.207-2.103L55.6 6.842a1.056 1.056 0 01-.102 2.108z" fill="#365E7D"/><path d="M30.646 15.468a1.057 1.057 0 01-.267-2.078l24.85-6.518a1.056 1.056 0 01.536 2.043l-24.85 6.518c-.09.024-.18.035-.27.035z" fill="#407093"/><path d="M62.246 47.136c-.537 0-.996-.408-1.05-.954l-3.405-34.838a1.057 1.057 0 012.102-.205L63.3 45.977a1.057 1.057 0 01-1.053 1.159z" fill="#365E7D"/><path d="M52.225 37.248a1.056 1.056 0 01-1.022-1.327l6.615-24.947a1.056 1.056 0 012.042.541l-6.614 24.947a1.057 1.057 0 01-1.02.785z" fill="#407093"/><path d="M55.307 6.964l3.02-3.02 4.464 4.464-3.02 3.02-4.464-4.464z" fill="#FFC365"/><path d="M57.6 9.246c.727-.76 1.86-1.946 2.957-3.086l-2.222-2.223-3.021 3.021L57.6 9.246z" fill="#FFA90F"/><path d="M60.45 13.152c-.27 0-.54-.103-.746-.31l-5.81-5.809a1.056 1.056 0 011.494-1.494l5.81 5.81a1.056 1.056 0 01-.747 1.803z" fill="#4A80AA"/><path d="M61.133 49.038L25.762 13.36c-4.69 10.587-5.504 21.951-1.993 31.752 9.695 8.745 24.179 10.088 37.512 4.59l-.148-.664z" fill="#B5DCFF"/><path d="M25.95 13.55l-8.104-8.174-.812.08c-5.71 13.847-4.042 28.936 5.634 38.612a29.438 29.438 0 001.817 1.67c-4.079-9.788-3.416-21.43 1.465-32.188z" fill="#8BCAFF"/><path d="M64.365 46.502L28.491 10.628a1.73 1.73 0 00-.964.487l-1.56 1.56a1.732 1.732 0 00-.507 1.212l35.76 35.76a1.361 1.361 0 001.925 0l1.22-1.22a1.362 1.362 0 000-1.925z" fill="#DBEDFF"/><path d="M26.02 12.702l1.528-1.528a1.696 1.696 0 011.004-.486l-8.317-8.316a1.362 1.362 0 00-1.925 0l-1.22 1.22a1.361 1.361 0 000 1.925l8.433 8.434a1.7 1.7 0 01.497-1.249z" fill="#B5DCFF"/></svg>