<svg width="167" height="154" fill="none" xmlns="http://www.w3.org/2000/svg"><path d="M96.174 86.847a11.887 11.887 0 00-3.887 1.655c-3.14 2.002-4.968 4.858-4.08 6.38.886 1.523 4.151 1.133 7.292-.868a12.384 12.384 0 003.19-2.852c.409-.542.482-1.218.187-1.723l-1.152-1.977c-.293-.507-.901-.748-1.55-.615zm-7.887-26.993c-.985.22-1.944.63-2.818 1.2-2.277 1.451-3.603 3.523-2.96 4.626.642 1.102 3.01.82 5.287-.63a8.988 8.988 0 002.313-2.07c.297-.393.35-.882.136-1.248L89.41 60.3c-.212-.367-.653-.542-1.123-.446z" fill="#D5D6DB"/><path d="M75.473 60.984a1.022 1.022 0 00-.656.164l-5.348 3.408c-.447.284-.626.832-.4 1.223.053.09.124.166.21.225l13.182 9.085 17.833-11.365-24.82-2.74z" fill="#029BC5"/><path d="M131.85 59.7L83.318 90.252l-28.713 11.425-14.643 2.911-1.61-2.737 80.894-49.947c2.411-1.495 5.097-2.412 7.786-2.66a14.21 14.21 0 013.461.117c.994.15 1.937.441 2.801.863.964.479 2.798.534 3.393 1.487.002-.002 1.404 4.373-4.837 7.989z" fill="#E1E6E9"/><path d="M83.962 86.21l-20.996 33.469c-.262.471-.106.997.347 1.176.28.11.62.067.906-.115l5.344-3.39a10.484 10.484 0 002.674-2.435l40.717-47.869L83.962 86.21zm-52.98-1.118c-.35-.12-.767-.058-1.119.166l-4.417 2.814c-.602.383-.842 1.12-.536 1.645.058.1.134.188.224.26l12.377 9.913 13.013-8.128-19.542-6.67zm10.678 16.585l-6.662 9.329c-.098.134-.075.302.051.376.091.053.215.043.316-.024l4.128-2.616a.38.38 0 00.085-.075l9.734-11.835-7.652 4.845zm88.037-51.914a14.49 14.49 0 00-3.565-.118c-1.181 1.65-1.936 3.505-2.189 5.379-.019.376.285.647.677.605a.83.83 0 00.353-.125l7.608-4.844a9.882 9.882 0 00-2.884-.897z" fill="#029BC5"/><path d="M113.117 58.671l4.967-3.137 4.627 7.87-4.967 3.136-4.627-7.869z" fill="#D5D6DB"/><path d="M109.992 61.783c-.599.38-.838 1.108-.534 1.628l.492.842c.324.507 1.063.596 1.652.199.56-.378.785-1.065.515-1.572l-.492-.842c-.304-.519-1.035-.633-1.633-.255zm-4.464 2.773c-.599.38-.838 1.108-.534 1.628l.492.841c.324.507 1.063.596 1.651.2.56-.378.786-1.065.516-1.572l-.492-.842c-.304-.52-1.035-.634-1.633-.255zm-4.466 2.774c-.598.379-.837 1.107-.533 1.626l.492.842c.324.507 1.063.596 1.652.199.56-.378.785-1.065.515-1.572l-.492-.842c-.304-.52-1.036-.633-1.634-.254zm-4.465 2.772c-.598.38-.836 1.107-.532 1.626l.492.843c.324.506 1.063.595 1.651.198.56-.378.786-1.064.516-1.571l-.492-.842c-.305-.52-1.036-.633-1.635-.254zm-4.464 2.772c-.598.38-.836 1.108-.533 1.628l.493.842c.304.52 1.035.633 1.633.254.599-.379.838-1.107.534-1.626l-.493-.843c-.303-.52-1.034-.634-1.632-.255h-.002zm-4.464 2.773c-.598.38-.837 1.108-.533 1.627l.493.843c.303.519 1.035.633 1.633.254.598-.38.837-1.108.534-1.627l-.493-.842c-.303-.52-1.034-.634-1.633-.256h-.001zm-4.465 2.773c-.598.38-.836 1.107-.533 1.627l.493.842c.305.519 1.036.632 1.634.252.596-.379.835-1.106.533-1.624l-.493-.843c-.303-.52-1.035-.633-1.634-.255zm-4.464 2.772c-.598.38-.837 1.108-.533 1.627l.492.843c.305.518 1.037.631 1.634.251.597-.378.835-1.105.533-1.624l-.493-.842c-.303-.52-1.034-.634-1.633-.255zm-4.464 2.772c-.599.38-.837 1.108-.533 1.628l.492.842c.305.519 1.036.631 1.634.252.597-.379.835-1.106.533-1.624l-.493-.843c-.304-.519-1.035-.633-1.633-.255zm-4.466 2.773c-.599.38-.838 1.108-.534 1.627v.001l.493.842c.305.52 1.036.632 1.634.252.597-.379.835-1.105.533-1.624l-.493-.842c-.303-.52-1.034-.634-1.633-.256zm-4.463 2.773c-.599.378-.838 1.106-.534 1.625v.002l.493.842c.305.519 1.036.631 1.634.252.597-.379.835-1.106.533-1.624l-.493-.843c-.304-.52-1.035-.633-1.633-.255z" fill="#3A556A"/></svg>