<svg width="46" height="44" fill="none" xmlns="http://www.w3.org/2000/svg"><path d="M37.61 12.99a3.305 3.305 0 01-.242 3.721L18.894 40.818a3.34 3.34 0 01-3.3 1.255 3.34 3.34 0 01-2.597-2.389l-2.733-9.728-.285-1.012-.734-.753-7.059-7.232a3.339 3.339 0 01-.77-3.444 3.342 3.342 0 012.737-2.23l30.114-3.945a3.305 3.305 0 013.343 1.65z" fill="#fff"/><path d="M10.264 29.956l2.733 9.728a3.339 3.339 0 002.598 2.389 3.34 3.34 0 003.299-1.255l18.474-24.107a3.305 3.305 0 00.242-3.72L9.98 28.944l.285 1.012z" fill="#fff"/><path d="M21.223 22.451c.281.488.115 1.11-.373 1.392l-10.586 6.112-.285-1.012-.734-.752 10.587-6.112a1.019 1.019 0 011.391.372z" fill="url(#paint0_linear_1_491)"/><path d="M10.264 29.955l10.586-6.112c.488-.281.654-.904.373-1.391L9.98 28.943l.285 1.012z" fill="url(#paint1_linear_1_491)"/><defs><linearGradient id="paint0_linear_1_491" x1="17.408" y1="23.544" x2="18.545" y2="25.825" gradientUnits="userSpaceOnUse"><stop stop-color="#747DEF"/><stop offset="1" stop-color="#5E3BE1"/></linearGradient><linearGradient id="paint1_linear_1_491" x1="17.903" y1="24.402" x2="18.507" y2="25.526" gradientUnits="userSpaceOnUse"><stop stop-color="#747DEF"/><stop offset="1" stop-color="#5E3BE1"/></linearGradient></defs></svg>