<svg version="1.1" id="Layer_1" xmlns="http://www.w3.org/2000/svg" x="0" y="0" viewBox="0 0 113.5 79" xml:space="preserve"><style>.st1{fill:#d5d6db}.st2{fill:#029bc5}</style><path d="M22.8 31c0 9.9 8.1 18 18 18h27c2.8 0 5-2.2 5-5V10c0-5.5-4.5-10-10-10h-35c-2.8 0-5 2.2-5 5v26z" fill="#fff1da"/><path class="st1" d="M71.4 44.9c-1.4.3-2.7.9-3.9 1.7-3.1 2-5 4.9-4.1 6.4.9 1.5 4.2 1.1 7.3-.9 1.2-.8 2.3-1.7 3.2-2.9.4-.5.5-1.2.2-1.7l-1.2-2c-.2-.5-.9-.7-1.5-.6zm-7.9-27c-1 .2-1.9.6-2.8 1.2-2.3 1.5-3.6 3.5-3 4.6.6 1.1 3 .8 5.3-.6.9-.6 1.7-1.3 2.3-2.1.3-.4.3-.9.1-1.2l-.8-1.4c-.2-.4-.6-.5-1.1-.5z"/><path class="st2" d="M50.7 19.1c-.2 0-.5 0-.7.2l-5.3 3.4c-.4.3-.6.8-.4 1.2.1.1.1.2.2.2l13.2 9.1 17.8-11.4-24.8-2.7z"/><path d="M107.1 17.8L58.5 48.3 29.8 59.8l-14.6 2.9-1.6-2.7 80.9-50c2.4-1.5 5.1-2.4 7.8-2.7 1.2-.1 2.3-.1 3.5.1 1 .2 1.9.4 2.8.9 1 .5 2.8.5 3.4 1.5-.1 0 1.3 4.4-4.9 8z" fill="#e1e6e9"/><path class="st2" d="M59.2 44.3l-21 33.5c-.3.5-.1 1 .3 1.2.3.1.6.1.9-.1l5.3-3.4c1-.7 1.9-1.5 2.7-2.4l40.7-47.9-28.9 19.1zm-53-1.1c-.4-.1-.8-.1-1.1.2L.7 46.2c-.6.4-.8 1.1-.5 1.6.1.1.1.2.2.3L12.7 58l13-8.1-19.5-6.7zm10.7 16.6l-6.7 9.3c-.1.1-.1.3.1.4.1.1.2 0 .3 0l4.1-2.6s.1 0 .1-.1L24.5 55l-7.6 4.8zm88-51.9c-1.2-.2-2.4-.2-3.6-.1-1.2 1.7-1.9 3.5-2.2 5.4 0 .4.3.6.7.6.1 0 .2-.1.4-.1l7.6-4.8c-.9-.6-1.9-.9-2.9-1z"/><path class="st1" d="M88.3 16.8l5-3.1 4.6 7.9-5 3.1-4.6-7.9z"/><path d="M85.2 19.9c-.6.4-.8 1.1-.5 1.6l.5.8c.3.5 1.1.6 1.7.2.6-.4.8-1.1.5-1.6l-.5-.8c-.4-.5-1.1-.6-1.7-.2zm-4.4 2.8c-.6.4-.8 1.1-.5 1.6l.5.8c.3.5 1.1.6 1.7.2.6-.4.8-1.1.5-1.6l-.5-.8c-.4-.5-1.2-.6-1.7-.2zm-4.5 2.7c-.6.4-.8 1.1-.5 1.6l.5.8c.3.5 1.1.6 1.7.2.6-.4.8-1.1.5-1.6l-.5-.8c-.4-.4-1.1-.6-1.7-.2zm-4.5 2.8c-.6.4-.8 1.1-.5 1.6l.5.8c.3.5 1.1.6 1.7.2.6-.4.8-1.1.5-1.6l-.5-.8c-.3-.5-1.1-.6-1.7-.2zM67.4 31c-.6.4-.8 1.1-.5 1.6l.5.8c.3.5 1 .6 1.6.3.6-.4.8-1.1.5-1.6l-.5-.9c-.3-.5-1-.6-1.6-.2zm-4.5 2.7c-.6.4-.8 1.1-.5 1.6l.5.8c.3.5 1 .6 1.6.3.6-.4.8-1.1.5-1.6l-.5-.8c-.3-.5-1-.6-1.6-.3zm-4.5 2.8c-.6.4-.8 1.1-.5 1.6l.5.8c.3.5 1 .6 1.6.3.6-.4.8-1.1.5-1.6l-.5-.8c-.2-.6-1-.7-1.6-.3zM54 39.3c-.6.4-.8 1.1-.5 1.6l.5.8c.3.5 1 .6 1.6.3.6-.4.8-1.1.5-1.6l-.5-.8c-.3-.6-1-.7-1.6-.3zm-4.5 2.8c-.6.4-.8 1.1-.5 1.6l.5.8c.3.5 1 .6 1.6.3.6-.4.8-1.1.5-1.6l-.5-.8c-.3-.6-1-.7-1.6-.3zM45 44.8c-.6.4-.8 1.1-.5 1.6l.5.8c.3.5 1 .6 1.6.3.6-.4.8-1.1.5-1.6l-.5-.8c-.2-.5-1-.6-1.6-.3zm-4.4 2.8c-.6.4-.9 1.1-.6 1.6l.5.8c.3.5 1 .6 1.6.3.6-.4.8-1.1.5-1.6l-.5-.8c-.2-.6-.9-.7-1.5-.3z" fill="#3a556a"/></svg>