<svg width="153" height="166" fill="none" xmlns="http://www.w3.org/2000/svg"><path d="M11.559 152.61v1.869H.838v-1.869h10.72zm-4.362-4.565v11.387H5.21v-11.387h1.987zm39.362-30.435v1.869H35.838v-1.869h10.72zm-4.362-4.565v11.387H40.21v-11.387h1.987zm35-100.435h4.362v1.88h-4.362v4.942H75.2V14.49h-4.361v-1.88H75.2V8.045h1.998v4.565zm4.362 35v1.87H70.838v-1.87h10.72zm-4.362-4.565v11.387H75.21V43.045h1.987z" fill="#E5E5E5"/><path d="M81.559 82.61v1.87H70.838v-1.87h10.72zm-4.362-4.565v11.387H75.21V78.045h1.987z" fill="#6246E5"/><path d="M81.559 117.61v1.869H70.838v-1.869h10.72zm-4.362-4.565v11.387H75.21v-11.387h1.987zm4.362 39.565v1.869H70.838v-1.869h10.72zm-4.362-4.565v11.387H75.21v-11.387h1.987zM116.559 12.61v1.87h-10.721v-1.87h10.721zm-4.362-4.565v11.387h-1.987V8.045h1.987zm4.362 39.565v1.87h-10.721v-1.87h10.721zm-4.362-4.565v11.387h-1.987V43.045h1.987zm4.362 39.565v1.87h-10.721v-1.87h10.721zm-4.362-4.565v11.387h-1.987V78.045h1.987zm4.362 39.565v1.869h-10.721v-1.869h10.721zm-4.362-4.565v11.387h-1.987v-11.387h1.987zm4.362 39.565v1.869h-10.721v-1.869h10.721zm-4.362-4.565v11.387h-1.987v-11.387h1.987z" fill="#E5E5E5"/><path d="M147.197 12.61h4.362v1.88h-4.362v4.942h-1.998V14.49h-4.361v-1.88h4.361V8.045h1.998v4.565z" fill="#FF7152"/><path d="M147.197 47.61h4.362v1.88h-4.362v4.942h-1.998V49.49h-4.361v-1.88h4.361v-4.565h1.998v4.565zm4.362 35v1.87h-10.721v-1.87h10.721zm-4.362-4.565v11.387h-1.987V78.045h1.987zm4.362 39.565v1.869h-10.721v-1.869h10.721zm-4.362-4.565v11.387h-1.987v-11.387h1.987zm4.362 39.565v1.869h-10.721v-1.869h10.721zm-4.362-4.565v11.387h-1.987v-11.387h1.987z" fill="#E5E5E5"/></svg>